<svg width="193" height="53" viewBox="0 0 193 53" fill="none" xmlns="http://www.w3.org/2000/svg">
<path fill-rule="evenodd" clip-rule="evenodd" d="M0 13.5828L22.5223 0.5L45.0446 13.5828L22.5223 26.5L0 13.5828Z" fill="white"/>
<path fill-rule="evenodd" clip-rule="evenodd" d="M0 13.5828L22.5223 26.5L45.0446 13.5828L22.5223 0.5L0 13.5828ZM0.954068 13.5802L22.5223 25.9502L44.0905 13.5802L22.5223 1.05157L0.954068 13.5802Z" fill="black"/>
<path fill-rule="evenodd" clip-rule="evenodd" d="M22.5223 26.5L45.0446 13.5828L45.0446 39.4172L22.5223 52.5L22.5223 26.5Z" fill="black"/>
<path d="M41.6485 38.7805L41.5038 38.3823L43.1828 37.4129L43.3292 37.8102L41.6485 38.7805Z" fill="#FF009E"/>
<path d="M39.8197 39.3546L39.3333 38.0152C39.304 37.9335 39.2676 37.8821 39.224 37.861C39.1805 37.8398 39.1262 37.848 39.0612 37.8855C38.9727 37.9366 38.8888 38.0022 38.8095 38.0823L38.5526 37.7421C38.61 37.6836 38.6708 37.6298 38.7351 37.5808C38.7999 37.5299 38.8692 37.4832 38.9432 37.4405C39.1393 37.3273 39.3048 37.3034 39.4397 37.3689C39.5751 37.4327 39.6872 37.5868 39.7761 37.8313L40.2416 39.111L39.8197 39.3546ZM39.4348 39.5768L39.291 39.1802L40.5146 38.4738L40.6584 38.8704L39.4348 39.5768ZM39.9301 38.2533L39.6211 37.6093L39.7051 37.5608C39.6644 37.405 39.6679 37.2648 39.7155 37.1402C39.7642 37.015 39.8547 36.9142 39.9869 36.8379C40.1662 36.7344 40.3276 36.7203 40.4712 36.7958C40.6149 36.8712 40.7335 37.0313 40.827 37.2761L40.4035 37.5206C40.3609 37.4107 40.3091 37.3391 40.248 37.3056C40.1868 37.2722 40.1193 37.2768 40.0454 37.3195C39.9725 37.3616 39.9161 37.4218 39.8762 37.5001C39.8368 37.5767 39.8199 37.6768 39.8256 37.8005C39.8306 37.9231 39.8654 38.074 39.9301 38.2533Z" fill="white"/>
<path d="M38.2731 39.7769C38.3571 39.7284 38.4393 39.6638 38.5197 39.583C38.6005 39.5005 38.6716 39.4102 38.7329 39.312L39.0536 39.5997C38.9817 39.7234 38.8928 39.836 38.787 39.9374C38.6817 40.037 38.573 40.1192 38.461 40.1839C38.2201 40.323 37.9965 40.3691 37.7902 40.3224C37.584 40.2756 37.4165 40.1408 37.2877 39.9178C37.1558 39.6892 37.0854 39.4639 37.0768 39.2419C37.0674 39.0187 37.1154 38.8132 37.2206 38.6255C37.327 38.4371 37.4877 38.2808 37.7028 38.1566C37.8787 38.055 38.0415 38.02 38.1913 38.0516C38.3421 38.0826 38.4628 38.1765 38.5533 38.3333C38.6788 38.5507 38.6624 38.7798 38.5042 39.0205C38.3452 39.2602 38.0599 39.5034 37.6481 39.7501L37.4199 39.483C37.7126 39.3095 37.9236 39.1458 38.0529 38.992C38.1827 38.8364 38.2175 38.7065 38.1574 38.6023C38.1295 38.5541 38.0888 38.5276 38.0352 38.5227C37.9827 38.5171 37.9223 38.5341 37.8539 38.5735C37.7307 38.6447 37.64 38.7374 37.582 38.8516C37.5232 38.9647 37.4995 39.0904 37.5107 39.2289C37.5219 39.3673 37.5687 39.5091 37.651 39.6543C37.7175 39.7668 37.8055 39.834 37.9152 39.8558C38.0249 39.8776 38.1442 39.8513 38.2731 39.7769Z" fill="white"/>
<path d="M35.9527 42.6628L35.7122 42.293L36.0645 42.0493C36.1948 41.9591 36.2857 41.8708 36.3373 41.7842C36.3889 41.6976 36.411 41.6027 36.4037 41.4994C36.3969 41.3972 36.3693 41.2795 36.3207 41.1462L35.903 39.9957C35.8744 39.9151 35.8361 39.8655 35.788 39.847C35.7404 39.8266 35.6808 39.8372 35.6091 39.8786C35.5194 39.9303 35.4257 39.9919 35.328 40.0633C35.2303 40.1346 35.1281 40.2138 35.0214 40.3008L34.7668 39.9413C34.8722 39.8521 34.981 39.7676 35.0933 39.6878C35.2061 39.6063 35.3219 39.5312 35.4406 39.4627C35.6658 39.3326 35.8496 39.2938 35.9918 39.3461C36.1341 39.3984 36.2466 39.5389 36.3293 39.7675L36.7199 40.844C36.7867 41.0295 36.8329 41.1963 36.8586 41.3443C36.8843 41.4923 36.8818 41.6289 36.8511 41.7542C36.8221 41.88 36.7597 41.9997 36.664 42.1133C36.5693 42.2262 36.4348 42.3412 36.2604 42.4583L35.9527 42.6628ZM35.799 38.9577C35.7194 39.0037 35.639 39.0157 35.5577 38.9939C35.4764 38.9722 35.4128 38.9215 35.3669 38.8419C35.3209 38.7624 35.3089 38.682 35.3306 38.6007C35.3524 38.5194 35.4031 38.4558 35.4826 38.4098C35.5622 38.3639 35.6426 38.3518 35.7239 38.3736C35.8052 38.3954 35.8688 38.4461 35.9148 38.5256C35.9607 38.6052 35.9728 38.6856 35.951 38.7669C35.9292 38.8482 35.8785 38.9118 35.799 38.9577Z" fill="white"/>
<path d="M34.2878 42.5932C34.0828 42.7116 33.8899 42.7475 33.7092 42.701C33.5289 42.6527 33.3802 42.5271 33.2631 42.3243C33.0445 41.9456 32.9603 41.6006 33.0106 41.2892C33.0609 40.9778 33.2395 40.7335 33.5465 40.5562C33.7515 40.4379 33.9449 40.4039 34.1264 40.4545C34.3091 40.5044 34.4606 40.6335 34.5809 40.8419C34.7963 41.215 34.8783 41.5562 34.8267 41.8653C34.7756 42.1727 34.596 42.4153 34.2878 42.5932ZM34.1369 42.165C34.2882 42.0776 34.369 41.9458 34.3792 41.7696C34.39 41.5916 34.3294 41.3883 34.1974 41.1597C34.1347 41.051 34.0603 40.9804 33.9743 40.9479C33.8883 40.9154 33.7994 40.9256 33.7075 40.9787C33.5529 41.068 33.4696 41.2019 33.4577 41.3806C33.4452 41.5581 33.5049 41.7612 33.6369 41.9898C33.7003 42.0996 33.7761 42.1701 33.8644 42.2013C33.9519 42.2314 34.0428 42.2193 34.1369 42.165Z" fill="white"/>
<path d="M32.6492 43.5393C32.4408 43.6596 32.257 43.7023 32.0978 43.6672C31.9397 43.6315 31.8047 43.5167 31.6928 43.3228C31.6708 43.2847 31.6465 43.2323 31.6199 43.1655C31.5937 43.0969 31.5652 43.0036 31.5344 42.8854L31.252 41.8451C31.2164 41.7163 31.1672 41.6349 31.1043 41.601C31.0408 41.566 30.9563 41.5789 30.851 41.6397C30.8039 41.6668 30.7577 41.698 30.7123 41.7332C30.6673 41.7666 30.6255 41.8042 30.5869 41.8459L30.3073 41.5054C30.3687 41.446 30.4339 41.392 30.5028 41.3432C30.5711 41.2933 30.6411 41.2477 30.7128 41.2063C30.9537 41.0672 31.1567 41.0307 31.3218 41.0967C31.4863 41.1616 31.6052 41.3327 31.6787 41.61L31.9562 42.6419C31.9863 42.756 32.0127 42.8446 32.0357 42.9075C32.059 42.9687 32.0788 43.0133 32.095 43.0413C32.1812 43.1932 32.3201 43.2139 32.5117 43.1033C32.5767 43.0658 32.6291 43.0258 32.6688 42.9834C32.7091 42.9393 32.7525 42.8799 32.799 42.8052L33.1158 43.0861C33.06 43.1706 32.9962 43.2516 32.9243 43.3289C32.8529 43.4045 32.7612 43.4746 32.6492 43.5393Z" fill="white"/>
<path d="M30.1756 44.452C30.2831 44.3899 30.3782 44.3127 30.4607 44.2202C30.5438 44.1259 30.6089 44.0278 30.6561 43.9259L30.9995 44.1713C30.934 44.3062 30.8449 44.4353 30.7323 44.5586C30.6209 44.6812 30.4934 44.7839 30.35 44.8667C30.1069 45.0071 29.8837 45.0553 29.6805 45.0113C29.4766 44.9661 29.3113 44.8337 29.1845 44.6141C29.05 44.3811 28.976 44.1534 28.9627 43.931C28.9493 43.7086 28.993 43.5049 29.0938 43.3197C29.195 43.1328 29.351 42.9785 29.5616 42.8569C29.7353 42.7566 29.8925 42.7017 30.0334 42.6921C30.1743 42.6825 30.3126 42.7176 30.4484 42.7976L30.31 43.2293C30.21 43.1855 30.1149 43.1671 30.025 43.1743C29.9343 43.1803 29.8386 43.2124 29.7377 43.2706C29.6223 43.3373 29.5386 43.4252 29.4866 43.5344C29.4358 43.6429 29.4175 43.764 29.4319 43.8976C29.4457 44.0301 29.4934 44.1684 29.5751 44.3125C29.6428 44.4272 29.7287 44.4971 29.8328 44.5222C29.9381 44.5466 30.0523 44.5232 30.1756 44.452Z" fill="white"/>
<path d="M28.2374 46.0865C28.0323 46.2048 27.8394 46.2408 27.6587 46.1942C27.4784 46.1459 27.3297 46.0204 27.2127 45.8176C26.994 45.4389 26.9098 45.0938 26.9601 44.7824C27.0104 44.471 27.189 44.2267 27.496 44.0495C27.7011 43.9311 27.8944 43.8972 28.076 43.9477C28.2586 43.9976 28.4101 44.1268 28.5305 44.3352C28.7459 44.7083 28.8278 45.0494 28.7762 45.3586C28.7251 45.6659 28.5455 45.9086 28.2374 46.0865ZM28.0865 45.6582C28.2377 45.5709 28.3185 45.4391 28.3288 45.2628C28.3396 45.0848 28.2789 44.8815 28.147 44.6529C28.0842 44.5442 28.0099 44.4736 27.9239 44.4411C27.8379 44.4086 27.7489 44.4189 27.657 44.4719C27.5024 44.5612 27.4192 44.6952 27.4073 44.8738C27.3948 45.0514 27.4545 45.2544 27.5864 45.483C27.6498 45.5928 27.7257 45.6633 27.8139 45.6945C27.9015 45.7246 27.9923 45.7125 28.0865 45.6582Z" fill="white"/>
<path d="M25.0163 45.526L25.2593 45.9974L25.7894 47.455L25.3726 47.6956L24.66 45.7317L25.0163 45.526ZM26.0516 47.3036L25.5301 45.8725C25.4911 45.7635 25.4352 45.7301 25.3623 45.7721C25.3097 45.8025 25.2856 45.8657 25.2902 45.9617C25.2948 46.0576 25.3249 46.1822 25.3805 46.3353L25.0921 45.8049L25.1863 45.7505C25.1601 45.6327 25.1608 45.5382 25.1884 45.467C25.2153 45.3946 25.2675 45.3361 25.3448 45.2915C25.44 45.2365 25.5278 45.2359 25.6081 45.2896C25.6884 45.3433 25.7618 45.4601 25.8282 45.6398L26.3659 47.1222L26.0516 47.3036ZM26.5072 45.2478L27.0449 46.7301L26.6264 46.9718L26.1065 45.5397C26.0883 45.4874 26.0651 45.4523 26.0367 45.4343C26.0095 45.4156 25.9797 45.4157 25.9472 45.4345C25.8923 45.4662 25.866 45.5306 25.8684 45.6279C25.8707 45.7251 25.9008 45.8497 25.9586 46.0015L25.6619 45.4759L25.7711 45.4129C25.7465 45.2926 25.7514 45.1949 25.7857 45.1198C25.8212 45.0441 25.882 44.9813 25.9683 44.9315C26.2025 44.7963 26.3821 44.9017 26.5072 45.2478Z" fill="white"/>
<path fill-rule="evenodd" clip-rule="evenodd" d="M0 13.5828L22.5223 26.5L22.5223 52.5L0 39.4172V13.5828Z" fill="white"/>
<path fill-rule="evenodd" clip-rule="evenodd" d="M0 13.5828V39.4172L22.5223 52.5L22.5223 26.5L0 13.5828ZM0.476943 14.4062V39.1427L22.0453 51.6714V26.7763L0.476943 14.4062Z" fill="black"/>
<path fill-rule="evenodd" clip-rule="evenodd" d="M22.1778 26.1871L27.2305 23.215L26.505 21.9817L20.747 25.3688V50.8969H22.1778V26.1871Z" fill="white"/>
<path fill-rule="evenodd" clip-rule="evenodd" d="M22.0188 51.472V50.8969H22.1778V51.7527L21.2625 51.2036L21.3443 51.0672L22.0188 51.472Z" fill="white"/>
<path fill-rule="evenodd" clip-rule="evenodd" d="M2.06675 14.7911L7.47106 11.6817L6.67823 10.3037L0.476943 13.8716V21.0085H2.06675V14.7911Z" fill="white"/>
<path fill-rule="evenodd" clip-rule="evenodd" d="M20.8734 26.3221L1.63677 15.5114L2.33776 14.2641L21.5744 25.0748L20.8734 26.3221Z" fill="white"/>
<rect x="1.74878" y="13.8544" width="1.43083" height="1.90777" fill="white"/>
<rect x="20.0316" y="24.6651" width="1.43083" height="1.90777" fill="white"/>
<path d="M65.0372 22.0605L64.8785 25.3931L63.1818 35H60.1544L62.4493 22.0605H65.0372ZM65.0861 35L66.7462 25.564C66.8764 24.8478 66.677 24.4897 66.1481 24.4897C65.7656 24.4897 65.436 24.7583 65.1593 25.2954C64.8826 25.8325 64.6547 26.6056 64.4757 27.6147L64.5734 23.8184H65.257C65.4848 23.0941 65.7859 22.5814 66.1603 22.2803C66.5346 21.971 67.0026 21.8164 67.5641 21.8164C68.2558 21.8164 68.736 22.089 69.0045 22.6343C69.2731 23.1795 69.3056 24.0462 69.1022 25.2344L67.3688 35H65.0861ZM74.0338 25.2344L72.3004 35H69.2609L70.9332 25.564C70.9983 25.2222 70.9821 24.9577 70.8844 24.7705C70.7949 24.5833 70.6321 24.4897 70.3961 24.4897C69.9974 24.4897 69.6515 24.7583 69.3585 25.2954C69.0656 25.8325 68.8377 26.6056 68.6749 27.6147L68.7115 23.8184H69.505C69.7491 23.0859 70.0828 22.5692 70.506 22.2681C70.9373 21.967 71.4663 21.8164 72.0929 21.8164C73.7937 21.8164 74.4407 22.9557 74.0338 25.2344ZM80.8209 35.2441C79.3317 35.2441 78.1679 34.8332 77.3297 34.0112C76.4996 33.1812 76.0846 32.0296 76.0846 30.5566C76.0846 27.806 76.7112 25.6616 77.9645 24.1235C79.2177 22.5854 80.9593 21.8164 83.1891 21.8164C84.6783 21.8164 85.838 22.2396 86.6681 23.0859C87.5063 23.9323 87.9254 25.1123 87.9254 26.626C87.9254 29.3359 87.2988 31.4518 86.0455 32.9736C84.8004 34.4873 83.0589 35.2441 80.8209 35.2441ZM81.3458 32.4365C82.4445 32.4365 83.299 31.9727 83.9093 31.0449C84.5278 30.109 84.837 28.811 84.837 27.1509C84.837 26.3615 84.6539 25.743 84.2877 25.2954C83.9215 24.8478 83.4047 24.624 82.7374 24.624C81.6144 24.624 80.7395 25.092 80.1129 26.0278C79.4863 26.9556 79.173 28.2495 79.173 29.9097C79.173 30.7072 79.3642 31.3298 79.7467 31.7773C80.1292 32.2168 80.6622 32.4365 81.3458 32.4365ZM96.5192 32.4365C97.3004 32.4365 98.0613 32.3145 98.8019 32.0703C99.5506 31.818 100.214 31.4884 100.792 31.0815L101.89 33.4985C101.109 34.0275 100.218 34.4507 99.2169 34.7681C98.2241 35.0854 97.2068 35.2441 96.1652 35.2441C94.3992 35.2441 93.032 34.8047 92.0636 33.9258C91.0952 33.0387 90.611 31.7977 90.611 30.2026C90.611 28.5099 90.9243 27.0369 91.5509 25.7837C92.1775 24.5304 93.0564 23.5579 94.1876 22.8662C95.3269 22.1663 96.6616 21.8164 98.1915 21.8164C99.4529 21.8164 100.482 22.0117 101.28 22.4023C102.077 22.793 102.72 23.4196 103.209 24.2822L101.097 26.1987C100.69 25.6453 100.23 25.2466 99.7174 25.0024C99.2047 24.7502 98.5822 24.624 97.8497 24.624C97.0115 24.624 96.2791 24.8397 95.6525 25.271C95.034 25.7023 94.5538 26.3045 94.212 27.0776C93.8702 27.8426 93.6953 28.7459 93.6871 29.7876C93.6953 30.6258 93.9435 31.2769 94.4318 31.7407C94.9282 32.2046 95.624 32.4365 96.5192 32.4365ZM112.864 35.2441C111.351 35.2441 110.215 34.8983 109.459 34.2065C108.71 33.5148 108.336 32.465 108.336 31.0571C108.336 30.7804 108.368 30.4183 108.433 29.9707C108.506 29.515 108.645 28.9168 108.848 28.1763L110.582 21.6211C110.793 20.8073 110.781 20.2091 110.545 19.8267C110.309 19.436 109.809 19.2407 109.044 19.2407C108.702 19.2407 108.352 19.2651 107.994 19.314C107.644 19.3547 107.298 19.4279 106.956 19.5337L106.505 16.7993C107.025 16.6691 107.55 16.5796 108.079 16.5308C108.608 16.4738 109.133 16.4453 109.654 16.4453C111.404 16.4453 112.624 16.8848 113.316 17.7637C114.008 18.6344 114.118 19.9406 113.646 21.6821L111.912 28.1763C111.717 28.8924 111.583 29.458 111.509 29.873C111.444 30.2799 111.412 30.5851 111.412 30.7886C111.404 31.8872 112.095 32.4365 113.487 32.4365C113.959 32.4365 114.37 32.3836 114.72 32.2778C115.078 32.1639 115.501 31.9767 115.989 31.7163L116.832 34.2432C116.262 34.528 115.66 34.7681 115.025 34.9634C114.398 35.1506 113.678 35.2441 112.864 35.2441ZM124.766 35.2441C123.277 35.2441 122.113 34.8332 121.275 34.0112C120.445 33.1812 120.03 32.0296 120.03 30.5566C120.03 27.806 120.657 25.6616 121.91 24.1235C123.163 22.5854 124.905 21.8164 127.134 21.8164C128.624 21.8164 129.783 22.2396 130.613 23.0859C131.452 23.9323 131.871 25.1123 131.871 26.626C131.871 29.3359 131.244 31.4518 129.991 32.9736C128.746 34.4873 127.004 35.2441 124.766 35.2441ZM125.291 32.4365C126.39 32.4365 127.244 31.9727 127.855 31.0449C128.473 30.109 128.782 28.811 128.782 27.1509C128.782 26.3615 128.599 25.743 128.233 25.2954C127.867 24.8478 127.35 24.624 126.683 24.624C125.56 24.624 124.685 25.092 124.058 26.0278C123.432 26.9556 123.118 28.2495 123.118 29.9097C123.118 30.7072 123.31 31.3298 123.692 31.7773C124.075 32.2168 124.608 32.4365 125.291 32.4365ZM133.616 40.8594L133.47 38.0884L136.155 37.8687C137.148 37.7873 137.921 37.592 138.475 37.2827C139.028 36.9735 139.447 36.5259 139.732 35.9399C140.017 35.3621 140.237 34.6338 140.391 33.7549L141.734 26.1743C141.832 25.6453 141.779 25.2547 141.575 25.0024C141.38 24.742 141.022 24.6118 140.501 24.6118C139.85 24.6118 139.146 24.6525 138.389 24.7339C137.632 24.8153 136.827 24.9251 135.972 25.0635L135.716 22.3047C136.57 22.1501 137.429 22.0321 138.292 21.9507C139.162 21.8612 140.029 21.8164 140.892 21.8164C142.527 21.8164 143.651 22.1826 144.261 22.915C144.871 23.6475 145.042 24.7664 144.774 26.272L143.516 33.3643C143.297 34.585 143.024 35.6388 142.698 36.5259C142.373 37.4129 141.929 38.1494 141.368 38.7354C140.814 39.3294 140.098 39.7852 139.219 40.1025C138.349 40.4199 137.254 40.6234 135.936 40.7129L133.616 40.8594ZM144.432 20.1929C143.854 20.1929 143.378 20.0057 143.004 19.6313C142.629 19.257 142.442 18.7809 142.442 18.2031C142.442 17.6253 142.629 17.1493 143.004 16.7749C143.378 16.4006 143.854 16.2134 144.432 16.2134C145.01 16.2134 145.486 16.4006 145.86 16.7749C146.234 17.1493 146.422 17.6253 146.422 18.2031C146.422 18.7809 146.234 19.257 145.86 19.6313C145.486 20.0057 145.01 20.1929 144.432 20.1929ZM155.333 32.4365C155.943 32.4365 156.594 32.3429 157.286 32.1558C157.986 31.9604 158.657 31.6919 159.3 31.3501L160.142 33.9258C159.361 34.3734 158.523 34.707 157.628 34.9268C156.741 35.1383 155.89 35.2441 155.076 35.2441C153.327 35.2441 151.964 34.7925 150.987 33.8892C150.01 32.9858 149.522 31.7244 149.522 30.105C149.522 28.4448 149.848 26.9963 150.499 25.7593C151.15 24.5142 152.057 23.5457 153.221 22.854C154.393 22.1623 155.76 21.8164 157.322 21.8164C158.6 21.8164 159.597 22.1379 160.313 22.7808C161.037 23.4237 161.4 24.3148 161.4 25.4541C161.4 27.0329 160.59 28.2292 158.97 29.043C157.351 29.8486 155.032 30.2759 152.012 30.3247L151.609 28.1519C153.75 28.1274 155.414 27.8996 156.602 27.4683C157.798 27.0288 158.397 26.4307 158.397 25.6738C158.397 25.3239 158.258 25.0513 157.982 24.856C157.713 24.6606 157.331 24.563 156.834 24.563C155.939 24.563 155.154 24.7827 154.478 25.2222C153.803 25.6535 153.278 26.2638 152.903 27.0532C152.529 27.8426 152.338 28.7622 152.33 29.812C152.338 30.634 152.606 31.2769 153.135 31.7407C153.664 32.2046 154.397 32.4365 155.333 32.4365ZM165.086 35L166.649 26.1743C166.746 25.6372 166.71 25.2425 166.539 24.9902C166.368 24.738 166.046 24.6118 165.574 24.6118C164.931 24.6118 164.268 24.7054 163.585 24.8926L163.255 22.2314C163.751 22.0931 164.252 21.9914 164.756 21.9263C165.269 21.853 165.794 21.8164 166.331 21.8164C167.755 21.8164 168.732 22.207 169.261 22.9883C169.798 23.7614 169.924 24.9536 169.639 26.5649L168.15 35H165.086ZM162.291 35L162.755 32.3877H171.641L171.177 35H162.291ZM169.151 29.3481L169.493 24.8682H170.103C170.372 23.8916 170.832 23.1388 171.483 22.6099C172.142 22.0809 172.951 21.8164 173.912 21.8164C175.214 21.8164 176.137 22.2477 176.683 23.1104C177.228 23.973 177.37 25.2181 177.11 26.8457H174.034C174.148 26.1133 174.091 25.5599 173.863 25.1855C173.635 24.8112 173.253 24.624 172.715 24.624C172.186 24.624 171.69 24.7746 171.226 25.0757C170.77 25.3687 170.364 25.861 170.005 26.5527C169.647 27.2363 169.363 28.1681 169.151 29.3481ZM176.854 37.6245L177.318 35H189.512L189.061 37.6245H176.854Z" fill="#FF009E"/>
</svg>
